<svg width="15" height="16" viewBox="0 0 15 16" fill="none" xmlns="http://www.w3.org/2000/svg">
<path d="M5.305 6.90167C6.08695 8.2754 7.2246 9.41305 8.59833 10.195L9.335 9.16333C9.45346 8.99745 9.62862 8.88073 9.82734 8.83528C10.026 8.78982 10.2345 8.81878 10.4133 8.91667C11.5919 9.56077 12.8935 9.94815 14.2325 10.0533C14.4415 10.0699 14.6365 10.1646 14.7788 10.3186C14.921 10.4726 15 10.6745 15 10.8842V14.6025C15 14.8088 14.9235 15.0078 14.7853 15.161C14.6471 15.3142 14.4569 15.4106 14.2517 15.4317C13.81 15.4775 13.365 15.5 12.9167 15.5C5.78333 15.5 0 9.71667 0 2.58333C0 2.135 0.0225 1.69 0.0683333 1.24833C0.0893788 1.04308 0.18582 0.852934 0.338991 0.714695C0.492163 0.576456 0.691172 0.499956 0.8975 0.5H4.61583C4.82547 0.499974 5.02741 0.57896 5.1814 0.721209C5.33539 0.863458 5.43011 1.05852 5.44667 1.2675C5.55185 2.60649 5.93923 3.90807 6.58333 5.08667C6.68122 5.26547 6.71018 5.47395 6.66472 5.67266C6.61927 5.87137 6.50255 6.04654 6.33667 6.165L5.305 6.90167ZM3.20333 6.35417L4.78667 5.22333C4.33732 4.25341 4.02946 3.22403 3.8725 2.16667H1.675C1.67 2.305 1.6675 2.44417 1.6675 2.58333C1.66667 8.79667 6.70333 13.8333 12.9167 13.8333C13.0558 13.8333 13.195 13.8308 13.3333 13.825V11.6275C12.276 11.4705 11.2466 11.1627 10.2767 10.7133L9.14583 12.2967C8.69055 12.1198 8.24834 11.9109 7.8225 11.6717L7.77417 11.6442C6.13965 10.7139 4.78607 9.36035 3.85583 7.72583L3.82833 7.6775C3.58909 7.25166 3.38024 6.80945 3.20333 6.35417Z" fill="#8393A9"/>
</svg>
